<?xml version="1.0" encoding="UTF-8" standalone="no"?>
<!-- Created with Inkscape (http://www.inkscape.org/) -->

<svg
   width="50"
   height="50"
   viewBox="0 0 13.229167 13.229167"
   version="1.1"
   id="svg5"
   inkscape:version="1.1.1 (3bf5ae0d25, 2021-09-20)"
   sodipodi:docname="circle_show.svg"
   xmlns:inkscape="http://www.inkscape.org/namespaces/inkscape"
   xmlns:sodipodi="http://sodipodi.sourceforge.net/DTD/sodipodi-0.dtd"
   xmlns:xlink="http://www.w3.org/1999/xlink"
   xmlns="http://www.w3.org/2000/svg"
   xmlns:svg="http://www.w3.org/2000/svg">
  <sodipodi:namedview
     id="namedview7"
     pagecolor="#505050"
     bordercolor="#eeeeee"
     borderopacity="1"
     inkscape:pageshadow="0"
     inkscape:pageopacity="0"
     inkscape:pagecheckerboard="0"
     inkscape:document-units="px"
     showgrid="false"
     units="px"
     inkscape:zoom="5.7656004"
     inkscape:cx="25.582765"
     inkscape:cy="64.260437"
     inkscape:window-width="1920"
     inkscape:window-height="1017"
     inkscape:window-x="-8"
     inkscape:window-y="-8"
     inkscape:window-maximized="1"
     inkscape:current-layer="layer1" />
  <defs
     id="defs2">
    <linearGradient
       gradientUnits="userSpaceOnUse"
       y2="-2.623"
       x2="0"
       y1="986.67"
       id="linearGradient826">
      <stop
         stop-color="#ffce3b"
         id="stop822" />
      <stop
         offset="1"
         stop-color="#ffd762"
         id="stop824" />
    </linearGradient>
    <linearGradient
       id="0"
       gradientUnits="userSpaceOnUse"
       y1="986.67"
       x2="0"
       y2="-2.623">
      <stop
         stop-color="#ffce3b"
         id="stop828" />
      <stop
         offset="1"
         stop-color="#fef4ab"
         id="stop830" />
    </linearGradient>
    <linearGradient
       gradientUnits="userSpaceOnUse"
       x2="1"
       x1="0"
       xlink:href="#0"
       id="linearGradient833" />
    <linearGradient
       gradientUnits="userSpaceOnUse"
       y2="-2.623"
       x2="0"
       y1="986.67"
       id="0-1">
      <stop
         stop-color="#ffce3b"
         id="stop952" />
      <stop
         offset="1"
         stop-color="#ffd762"
         id="stop954" />
    </linearGradient>
    <linearGradient
       y2="-2.623"
       x2="0"
       y1="986.67"
       gradientUnits="userSpaceOnUse"
       id="linearGradient961">
      <stop
         stop-color="#ffce3b"
         id="stop957" />
      <stop
         offset="1"
         stop-color="#fef4ab"
         id="stop959" />
    </linearGradient>
  </defs>
  <g
     inkscape:label="Ebene 1"
     inkscape:groupmode="layer"
     id="layer1">
    <circle
       style="fill:none;stroke-width:0.52916668;stroke-linecap:square;fill-opacity:1;stroke:#ffffff;stroke-opacity:1;stroke-miterlimit:4;stroke-dasharray:none"
       id="path846"
       cx="6.6145835"
       cy="6.6145835"
       r="5.291667" />
    <g
       transform="matrix(0.52915874,0,0,0.52915874,0.7938056,-544.43019)"
       fill="#da4453"
       id="g969">
      <rect
         y="1037.36"
         x="7"
         height="8"
         width="8"
         fill="#32c671"
         rx="4"
         id="rect965" />
      <path
         d="M 123.86,12.966 112.78,1.886 c -1.52,-1.521 -3.368,-2.281 -5.54,-2.281 -2.173,0 -4.02,0.76 -5.541,2.281 l -53.45,53.53 -23.953,-24.04 c -1.521,-1.521 -3.368,-2.281 -5.54,-2.281 -2.173,0 -4.02,0.76 -5.541,2.281 l -11.08,11.08 c -1.521,1.521 -2.281,3.368 -2.281,5.541 0,2.172 0.76,4.02 2.281,5.54 l 29.493,29.493 11.08,11.08 c 1.52,1.521 3.367,2.281 5.54,2.281 2.172,0 4.02,-0.761 5.54,-2.281 l 11.08,-11.08 58.986,-58.986 c 1.52,-1.521 2.281,-3.368 2.281,-5.541 10e-5,-2.172 -0.761,-4.02 -2.281,-5.54"
         fill="#ffffff"
         transform="matrix(0.0436,0,0,0.0436,8.177,1039.72)"
         stroke="none"
         stroke-width="9.512"
         id="path967" />
    </g>
  </g>
</svg>
