<?xml version="1.0" encoding="UTF-8" standalone="no"?>
<!-- Created with Inkscape (http://www.inkscape.org/) -->

<svg
   width="50"
   height="50"
   viewBox="0 0 13.229167 13.229167"
   version="1.1"
   id="svg5"
   inkscape:version="1.1.1 (3bf5ae0d25, 2021-09-20)"
   sodipodi:docname="circle_hide.svg"
   xmlns:inkscape="http://www.inkscape.org/namespaces/inkscape"
   xmlns:sodipodi="http://sodipodi.sourceforge.net/DTD/sodipodi-0.dtd"
   xmlns:xlink="http://www.w3.org/1999/xlink"
   xmlns="http://www.w3.org/2000/svg"
   xmlns:svg="http://www.w3.org/2000/svg">
  <sodipodi:namedview
     id="namedview7"
     pagecolor="#505050"
     bordercolor="#eeeeee"
     borderopacity="1"
     inkscape:pageshadow="0"
     inkscape:pageopacity="0"
     inkscape:pagecheckerboard="0"
     inkscape:document-units="px"
     showgrid="false"
     units="px"
     inkscape:zoom="5.7656004"
     inkscape:cx="25.582765"
     inkscape:cy="64.260437"
     inkscape:window-width="1920"
     inkscape:window-height="1017"
     inkscape:window-x="-8"
     inkscape:window-y="-8"
     inkscape:window-maximized="1"
     inkscape:current-layer="layer1" />
  <defs
     id="defs2">
    <linearGradient
       gradientUnits="userSpaceOnUse"
       y2="-2.623"
       x2="0"
       y1="986.67"
       id="linearGradient826">
      <stop
         stop-color="#ffce3b"
         id="stop822" />
      <stop
         offset="1"
         stop-color="#ffd762"
         id="stop824" />
    </linearGradient>
    <linearGradient
       id="0"
       gradientUnits="userSpaceOnUse"
       y1="986.67"
       x2="0"
       y2="-2.623">
      <stop
         stop-color="#ffce3b"
         id="stop828" />
      <stop
         offset="1"
         stop-color="#fef4ab"
         id="stop830" />
    </linearGradient>
    <linearGradient
       gradientUnits="userSpaceOnUse"
       x2="1"
       x1="0"
       xlink:href="#0"
       id="linearGradient833" />
  </defs>
  <g
     inkscape:label="Ebene 1"
     inkscape:groupmode="layer"
     id="layer1">
    <circle
       style="fill:none;stroke-width:0.52916668;stroke-linecap:square;fill-opacity:1;stroke:#ffffff;stroke-opacity:1;stroke-miterlimit:4;stroke-dasharray:none"
       id="path846"
       cx="6.6145835"
       cy="6.6145835"
       r="5.291667" />
    <g
       transform="matrix(0.52916668,0,0,0.52916668,0.79375002,-544.43843)"
       id="g841">
      <path
         transform="translate(7,1037.36)"
         d="M 4,0 C 1.784,0 0,1.784 0,4 0,6.216 1.784,8 4,8 6.216,8 8,6.216 8,4 8,1.784 6.216,0 4,0"
         fill="#da4453"
         id="path837" />
      <path
         d="m 11.906,1041.46 0.99,-0.99 c 0.063,-0.062 0.094,-0.139 0.094,-0.229 0,-0.09 -0.031,-0.166 -0.094,-0.229 l -0.458,-0.458 c -0.063,-0.062 -0.139,-0.094 -0.229,-0.094 -0.09,0 -0.166,0.031 -0.229,0.094 l -0.99,0.99 -0.99,-0.99 c -0.063,-0.062 -0.139,-0.094 -0.229,-0.094 -0.09,0 -0.166,0.031 -0.229,0.094 l -0.458,0.458 c -0.063,0.063 -0.094,0.139 -0.094,0.229 0,0.09 0.031,0.166 0.094,0.229 l 0.99,0.99 -0.99,0.99 c -0.063,0.062 -0.094,0.139 -0.094,0.229 0,0.09 0.031,0.166 0.094,0.229 l 0.458,0.458 c 0.063,0.063 0.139,0.094 0.229,0.094 0.09,0 0.166,-0.031 0.229,-0.094 l 0.99,-0.99 0.99,0.99 c 0.063,0.063 0.139,0.094 0.229,0.094 0.09,0 0.166,-0.031 0.229,-0.094 l 0.458,-0.458 c 0.063,-0.062 0.094,-0.139 0.094,-0.229 0,-0.09 -0.031,-0.166 -0.094,-0.229 l -0.99,-0.99"
         fill="#ffffff"
         id="path839" />
    </g>
  </g>
</svg>
