<?xml version="1.0" encoding="UTF-8" standalone="no"?>
<!-- Created with Inkscape (http://www.inkscape.org/) -->

<svg
   width="50"
   height="50"
   viewBox="0 0 13.229167 13.229167"
   version="1.1"
   id="svg5"
   inkscape:version="1.1.1 (3bf5ae0d25, 2021-09-20)"
   sodipodi:docname="pin.svg"
   xmlns:inkscape="http://www.inkscape.org/namespaces/inkscape"
   xmlns:sodipodi="http://sodipodi.sourceforge.net/DTD/sodipodi-0.dtd"
   xmlns="http://www.w3.org/2000/svg"
   xmlns:svg="http://www.w3.org/2000/svg">
  <sodipodi:namedview
     id="namedview7"
     pagecolor="#505050"
     bordercolor="#eeeeee"
     borderopacity="1"
     inkscape:pageshadow="0"
     inkscape:pageopacity="0"
     inkscape:pagecheckerboard="0"
     inkscape:document-units="px"
     showgrid="false"
     inkscape:zoom="256"
     inkscape:cx="26.490234"
     inkscape:cy="48.810547"
     inkscape:window-width="2560"
     inkscape:window-height="1377"
     inkscape:window-x="-8"
     inkscape:window-y="-8"
     inkscape:window-maximized="1"
     inkscape:current-layer="layer1"
     units="px" />
  <defs
     id="defs2" />
  <g
     inkscape:label="Ebene 1"
     inkscape:groupmode="layer"
     id="layer1">
    <path
       id="path846"
       style="fill:#aa0000;fill-opacity:1;stroke:#000000;stroke-width:0.079375;stroke-miterlimit:4;stroke-dasharray:none"
       d="m 6.6145318,1.7831333 a 3.1506964,3.1506964 0 0 0 -3.1506245,3.15079 3.1506964,3.1506964 0 0 0 1.5086705,2.6838834 L 6.6145318,13.08359 8.2116159,7.6423109 A 3.1506964,3.1506964 0 0 0 9.7651571,4.9339233 3.1506964,3.1506964 0 0 0 6.6145318,1.7831333 Z m 0,2.0072007 A 0.91984301,0.91984295 0 0 1 7.5344364,4.7100731 0.91984301,0.91984295 0 0 1 6.6145318,5.6299781 0.91984301,0.91984295 0 0 1 5.694627,4.7100731 0.91984301,0.91984295 0 0 1 6.6145318,3.790334 Z" />
  </g>
</svg>
