<?xml version="1.0" encoding="UTF-8" standalone="no"?>
<!-- Created with Inkscape (http://www.inkscape.org/) -->

<svg
   width="50"
   height="50"
   viewBox="0 0 13.229167 13.229167"
   version="1.1"
   id="svg5"
   inkscape:version="1.1.1 (3bf5ae0d25, 2021-09-20)"
   sodipodi:docname="polygon_hide.svg"
   xmlns:inkscape="http://www.inkscape.org/namespaces/inkscape"
   xmlns:sodipodi="http://sodipodi.sourceforge.net/DTD/sodipodi-0.dtd"
   xmlns:xlink="http://www.w3.org/1999/xlink"
   xmlns="http://www.w3.org/2000/svg"
   xmlns:svg="http://www.w3.org/2000/svg">
  <sodipodi:namedview
     id="namedview7"
     pagecolor="#505050"
     bordercolor="#eeeeee"
     borderopacity="1"
     inkscape:pageshadow="0"
     inkscape:pageopacity="0"
     inkscape:pagecheckerboard="0"
     inkscape:document-units="px"
     showgrid="false"
     units="px"
     inkscape:zoom="5.7656004"
     inkscape:cx="25.582765"
     inkscape:cy="64.260437"
     inkscape:window-width="1920"
     inkscape:window-height="1017"
     inkscape:window-x="-8"
     inkscape:window-y="-8"
     inkscape:window-maximized="1"
     inkscape:current-layer="layer1" />
  <defs
     id="defs2">
    <linearGradient
       gradientUnits="userSpaceOnUse"
       y2="-2.623"
       x2="0"
       y1="986.67"
       id="linearGradient1316">
      <stop
         stop-color="#ffce3b"
         id="stop1312" />
      <stop
         offset="1"
         stop-color="#ffd762"
         id="stop1314" />
    </linearGradient>
    <linearGradient
       id="0"
       gradientUnits="userSpaceOnUse"
       y1="986.67"
       x2="0"
       y2="-2.623">
      <stop
         stop-color="#ffce3b"
         id="stop1318" />
      <stop
         offset="1"
         stop-color="#fef4ab"
         id="stop1320" />
    </linearGradient>
    <linearGradient
       gradientUnits="userSpaceOnUse"
       x2="1"
       x1="0"
       xlink:href="#0"
       id="linearGradient1323" />
  </defs>
  <g
     inkscape:label="Ebene 1"
     inkscape:groupmode="layer"
     id="layer1">
    <path
       sodipodi:type="star"
       style="fill:none;fill-opacity:1;stroke:#ffffff;stroke-width:3.02714904;stroke-linecap:square;stroke-miterlimit:4;stroke-dasharray:none;stroke-opacity:1"
       id="path1955"
       inkscape:flatsided="true"
       sodipodi:sides="5"
       sodipodi:cx="4.1626196"
       sodipodi:cy="7.6314688"
       sodipodi:r1="31.928545"
       sodipodi:r2="16.035692"
       sodipodi:arg1="0.95079091"
       sodipodi:arg2="1.5791095"
       inkscape:rounded="0"
       inkscape:randomized="0"
       d="M 22.714368,33.617323 -14.818591,33.3053 -26.120162,-2.4870852 4.4280422,-24.295973 34.609441,-1.9822214 Z"
       transform="matrix(0.17611686,0,0,0.18478888,5.8664677,5.7747568)"
       inkscape:transform-center-x="1.0188311"
       inkscape:transform-center-y="-0.4560579" />
    <g
       transform="matrix(0.52916668,0,0,0.52916668,0.79375002,-544.43843)"
       id="g1331">
      <path
         transform="translate(7,1037.36)"
         d="M 4,0 C 1.784,0 0,1.784 0,4 0,6.216 1.784,8 4,8 6.216,8 8,6.216 8,4 8,1.784 6.216,0 4,0"
         fill="#da4453"
         id="path1327" />
      <path
         d="m 11.906,1041.46 0.99,-0.99 c 0.063,-0.062 0.094,-0.139 0.094,-0.229 0,-0.09 -0.031,-0.166 -0.094,-0.229 l -0.458,-0.458 c -0.063,-0.062 -0.139,-0.094 -0.229,-0.094 -0.09,0 -0.166,0.031 -0.229,0.094 l -0.99,0.99 -0.99,-0.99 c -0.063,-0.062 -0.139,-0.094 -0.229,-0.094 -0.09,0 -0.166,0.031 -0.229,0.094 l -0.458,0.458 c -0.063,0.063 -0.094,0.139 -0.094,0.229 0,0.09 0.031,0.166 0.094,0.229 l 0.99,0.99 -0.99,0.99 c -0.063,0.062 -0.094,0.139 -0.094,0.229 0,0.09 0.031,0.166 0.094,0.229 l 0.458,0.458 c 0.063,0.063 0.139,0.094 0.229,0.094 0.09,0 0.166,-0.031 0.229,-0.094 l 0.99,-0.99 0.99,0.99 c 0.063,0.063 0.139,0.094 0.229,0.094 0.09,0 0.166,-0.031 0.229,-0.094 l 0.458,-0.458 c 0.063,-0.062 0.094,-0.139 0.094,-0.229 0,-0.09 -0.031,-0.166 -0.094,-0.229 l -0.99,-0.99"
         fill="#ffffff"
         id="path1329" />
    </g>
  </g>
</svg>
