<?xml version="1.0" encoding="UTF-8"?>
<svg width="50" height="50" version="1.1" viewBox="0 0 50 50" xmlns="http://www.w3.org/2000/svg">
 <g class="" transform="matrix(.092715 0 0 .09292 1.3113 1.2124)" fill="#b2ba57" stroke-width="10.698">
  <path d="m29 30 1 90h36v-54h26v-36zm99 0v36h72v-36zm108 0v36h72v-36zm108 0v36h72v-36zm102 0v78h36v-78zm-206 80v36h100.54l-118 118h-192.54v218h218v-192.54l118-118v100.54h36v-162zm206 34v72h36v-72zm-416 12v72h36v-72zm416 96v72h36v-72zm0 108v72h36v-72zm-166 86v36h72v-36zm108 0v36h72v-36z" fill="#b2ba57"/>
 </g>
</svg>
